# xmcd
#
# Track frame offsets:
#	150
#	13494
#	24761
#	38708
#	49582
#	62104
#	74075
#	86543
#	98725
#	109721
#	120474
#	130678
#	142387
#	153765
#	162836
#	173985
#	183600
#	196434
#	208507
#	218406
#
# Disc length: 3042 seconds
#
# Revision: 1
# Processed by: cddbd v1.5.2PL0 Copyright (c) Steve Scherf et al.
# Submitted via: audiograbber 1.83.01
#
DISCID=180be014
DTITLE=Various Artist - The Drifters Greatest Hits CD1
DYEAR=19
DGENRE=RR-Boo/
TTITLE0=McPhater Clyde and The Drifters - Money Honey
TTITLE1=McPhater Clyde and The Drifters - Such a Night
TTITLE2=McPhater Clyde and The Drifters - Lucille
TTITLE3=McPhater Clyde and The Drifters - Honey Love
TTITLE4=McPhater Clyde and The Drifters - Bip Bam
TTITLE5=McPhater Clyde and The Drifters - White Christmas
TTITLE6=McPhater Clyde and The Drifters - What'cha gonna do
TTITLE7=Drifters The - Adorable
TTITLE8=Drifters The - Steamboat
TTITLE9=Drifters The - Ruby Baby
TTITLE10=Drifters The - I gotta get myself a Woman
TTITLE11=Drifters The - Soldier of Fortune
TTITLE12=Drifters The - Fools fall in Love
TTITLE13=Drifters The - Hypnotized
TTITLE14=Drifters The - Drip Drop
TTITLE15=Drifters The - Moonlight Bay
TTITLE16=McPhater Clyde and The Drifters - Let the Boogie Woogie Roll
TTITLE17=McPhater Clyde and The Drifters - Gone
TTITLE18=Drifters The - I Know
TTITLE19=Drifters The - Baltimore
EXTD=
EXTT0=
EXTT1=
EXTT2=
EXTT3=
EXTT4=
EXTT5=
EXTT6=
EXTT7=
EXTT8=
EXTT9=
EXTT10=
EXTT11=
EXTT12=
EXTT13=
EXTT14=
EXTT15=
EXTT16=
EXTT17=
EXTT18=
EXTT19=
PLAYORDER=
